<svg xmlns="http://www.w3.org/2000/svg" xmlns:xlink="http://www.w3.org/1999/xlink" viewBox="0 0 82.23 96.06"><defs><style>.cls-1{fill:url(#linear-gradient);}</style><linearGradient id="linear-gradient" x1="0.99" y1="59.42" x2="88.89" y2="27.43" gradientUnits="userSpaceOnUse"><stop offset="0" stop-color="#f6921e"/><stop offset="0.74" stop-color="#ffd006"/><stop offset="1" stop-color="#f6921e"/></linearGradient></defs><title>Asset 4</title><g id="Layer_2" data-name="Layer 2"><g id="Layer_1-2" data-name="Layer 1"><path class="cls-1" d="M82.21,31.48c0,6.23-.08,12.47,0,18.7.13,9.12-3.06,17-8.9,23.81-4.94,5.79-11.06,10.17-17.56,14C51.24,90.69,46.6,93.18,42,95.78a1.62,1.62,0,0,1-1.8,0c-5.67-3.28-11.55-6.21-17-9.8-6.75-4.4-12.91-9.43-17.4-16.24A33.58,33.58,0,0,1,.16,52.94C.06,51.11,0,49.29,0,47.46q0-12,0-24a1.67,1.67,0,0,1,1-1.82,66.46,66.46,0,0,1,19.36-6.24A46.38,46.38,0,0,1,31.56,15c5.1.54,9.25,3,12.91,6.32a12.82,12.82,0,0,0,7,3.39C56.34,25.43,61,27,64.78,30.3A11.32,11.32,0,0,1,68.56,42a28.67,28.67,0,0,1-3.34,7.53c-.28.5-.5.57-.77,0a8.52,8.52,0,0,0-.87-1.6,5.47,5.47,0,0,0-4.07-2.29,23.23,23.23,0,0,0-10.18,1c-5.8,2.12-7.9,7.33-5.07,12.83,2.66,5.17,7.07,8.26,12.6,9.81A34.76,34.76,0,0,0,68,70.14a2,2,0,0,0,1.54-.84,29.09,29.09,0,0,0,6.8-18.92q0-18.29,0-36.55A1.64,1.64,0,0,0,75,12a114.24,114.24,0,0,0-26.1-5.62c-12.86-1.19-25.35.72-37.62,4.46A88.24,88.24,0,0,0,1.2,14.45c-.82.36-1.2.21-1.18-.75,0-1.22.07-2.44,0-3.65a1.78,1.78,0,0,1,1.33-2A112.87,112.87,0,0,1,23,1.78,94.36,94.36,0,0,1,46.39.15,111.85,111.85,0,0,1,78.05,6.76c1,.37,2,.83,3,1.14a1.51,1.51,0,0,1,1.16,1.75C82.19,16.93,82.21,24.2,82.21,31.48Zm-50.11,3a1.61,1.61,0,0,1-1,.63,74.94,74.94,0,0,0-9.52,4.23A50.22,50.22,0,0,0,6.7,51.16a2.29,2.29,0,0,0-.58,1.77,30,30,0,0,0,8.3,18.22c.46.49.91,1.4,1.47,1.26s.48-1.15.66-1.79c3.09-10.89,9.14-19.6,19-25.45a39.38,39.38,0,0,1,25.8-5.29c1.67.21,1.9,0,1.58-1.68a6.07,6.07,0,0,0-2.1-3.53,12,12,0,0,0-2.32-1.55A30.83,30.83,0,0,0,46.93,30,4.32,4.32,0,0,1,44,28.77a42.13,42.13,0,0,0-5.8-4.95,14.8,14.8,0,0,0-7.4-2.89,39,39,0,0,0-8.57.27A50.52,50.52,0,0,0,7.09,25.51a1.23,1.23,0,0,0-.88,1.27c0,5,0,10,0,15,0,.16-.06.36.26.49A63.16,63.16,0,0,1,32.1,34.48Zm5.46,16.44A27.57,27.57,0,0,0,33,54.4c-6.49,5.91-10,13.39-11.6,21.9a1.57,1.57,0,0,0,.79,1.77c5.28,3.85,11,6.93,16.68,10.16a4,4,0,0,0,4.56,0c6-3.44,12.11-6.65,17.61-10.89a4,4,0,0,0,1.09-1,1.76,1.76,0,0,0-.34-.17,8.24,8.24,0,0,0-.85-.11A27.65,27.65,0,0,1,45.34,70c-4.05-3.34-7-7.41-8.07-12.7A14.9,14.9,0,0,1,37.56,50.92Z"/></g></g></svg>