<svg xmlns="http://www.w3.org/2000/svg" xmlns:xlink="http://www.w3.org/1999/xlink" viewBox="0 0 325.9 96.06"><defs><style>.cls-1{fill:url(#linear-gradient);}.cls-2{fill:#f6921e;}.cls-3{fill:#fff;}</style><linearGradient id="linear-gradient" x1="0.99" y1="59.42" x2="88.89" y2="27.43" gradientUnits="userSpaceOnUse"><stop offset="0" stop-color="#f6921e"/><stop offset="0.74" stop-color="#ffd006"/><stop offset="1" stop-color="#f6921e"/></linearGradient></defs><title>Asset 3</title><g id="Layer_2" data-name="Layer 2"><g id="Layer_1-2" data-name="Layer 1"><path class="cls-1" d="M82.21,31.48c0,6.23-.08,12.47,0,18.7.13,9.12-3.06,17-8.9,23.81-4.94,5.79-11.06,10.17-17.56,14C51.24,90.69,46.6,93.18,42,95.78a1.62,1.62,0,0,1-1.8,0c-5.67-3.28-11.55-6.21-17-9.8-6.75-4.4-12.91-9.43-17.4-16.24A33.58,33.58,0,0,1,.16,52.94C.06,51.11,0,49.29,0,47.46q0-12,0-24a1.67,1.67,0,0,1,1-1.82,66.46,66.46,0,0,1,19.36-6.24A46.38,46.38,0,0,1,31.56,15c5.1.54,9.25,3,12.91,6.32a12.82,12.82,0,0,0,7,3.39C56.34,25.43,61,27,64.78,30.3A11.32,11.32,0,0,1,68.56,42a28.67,28.67,0,0,1-3.34,7.53c-.28.5-.5.57-.77,0a8.52,8.52,0,0,0-.87-1.6,5.47,5.47,0,0,0-4.07-2.29,23.23,23.23,0,0,0-10.18,1c-5.8,2.12-7.9,7.33-5.07,12.83,2.66,5.17,7.07,8.26,12.6,9.81A34.76,34.76,0,0,0,68,70.14a2,2,0,0,0,1.54-.84,29.09,29.09,0,0,0,6.8-18.92q0-18.29,0-36.55A1.64,1.64,0,0,0,75,12a114.24,114.24,0,0,0-26.1-5.62c-12.86-1.19-25.35.72-37.62,4.46A88.24,88.24,0,0,0,1.2,14.45c-.82.36-1.2.21-1.18-.75,0-1.22.07-2.44,0-3.65a1.78,1.78,0,0,1,1.33-2A112.87,112.87,0,0,1,23,1.78,94.36,94.36,0,0,1,46.39.15,111.85,111.85,0,0,1,78.05,6.76c1,.37,2,.83,3,1.14a1.51,1.51,0,0,1,1.16,1.75C82.19,16.93,82.21,24.2,82.21,31.48Zm-50.11,3a1.61,1.61,0,0,1-1,.63,74.94,74.94,0,0,0-9.52,4.23A50.22,50.22,0,0,0,6.7,51.16a2.29,2.29,0,0,0-.58,1.77,30,30,0,0,0,8.3,18.22c.46.49.91,1.4,1.47,1.26s.48-1.15.66-1.79c3.09-10.89,9.14-19.6,19-25.45a39.38,39.38,0,0,1,25.8-5.29c1.67.21,1.9,0,1.58-1.68a6.07,6.07,0,0,0-2.1-3.53,12,12,0,0,0-2.32-1.55A30.83,30.83,0,0,0,46.93,30,4.32,4.32,0,0,1,44,28.77a42.13,42.13,0,0,0-5.8-4.95,14.8,14.8,0,0,0-7.4-2.89,39,39,0,0,0-8.57.27A50.52,50.52,0,0,0,7.09,25.51a1.23,1.23,0,0,0-.88,1.27c0,5,0,10,0,15,0,.16-.06.36.26.49A63.16,63.16,0,0,1,32.1,34.48Zm5.46,16.44A27.57,27.57,0,0,0,33,54.4c-6.49,5.91-10,13.39-11.6,21.9a1.57,1.57,0,0,0,.79,1.77c5.28,3.85,11,6.93,16.68,10.16a4,4,0,0,0,4.56,0c6-3.44,12.11-6.65,17.61-10.89a4,4,0,0,0,1.09-1,1.76,1.76,0,0,0-.34-.17,8.24,8.24,0,0,0-.85-.11A27.65,27.65,0,0,1,45.34,70c-4.05-3.34-7-7.41-8.07-12.7A14.9,14.9,0,0,1,37.56,50.92Z"/><path class="cls-2" d="M93.73,43.77c-.43-3.45-.78-6.23-1-8.32s-.49-3.73-.64-4.89-.25-2-.29-2.39-.06-.7-.06-.81l-.06-.06a3.07,3.07,0,0,1,.64-2,2.74,2.74,0,0,1,1.86-1.1h.41a2.79,2.79,0,0,1,1.86.69,2.56,2.56,0,0,1,.93,1.75v.06a.79.79,0,0,1,.06.35,5.9,5.9,0,0,0,.12.87l.41,3.26c.19,1.4.39,3,.61,4.74s.45,3.64.73,5.62q1,7.62,1.57,12.34c.38,3.14.64,5.21.75,6.22l.09.44a1.35,1.35,0,0,1,0,.2c0,.28.12.43.35.47a.76.76,0,0,0,.93-.06.87.87,0,0,0,.29-.46l4.89-26.48a2.71,2.71,0,0,1,1-1.69,2.78,2.78,0,0,1,1.83-.64,2.82,2.82,0,0,1,1.84.64,2.92,2.92,0,0,1,1,1.69l4.83,26.42a1.35,1.35,0,0,0,.3.52.8.8,0,0,0,.52.18.57.57,0,0,0,.41-.12,1.52,1.52,0,0,0,.29-.18.8.8,0,0,0,.11-.34v-.41l.59-4.37c.19-1.35.38-2.86.58-4.51s.41-3.38.64-5.21.46-3.58.7-5.41.45-3.55.67-5.18.39-3.09.55-4.39.29-2.34.41-3.12l.17-1.39a2.69,2.69,0,0,1,.93-1.81,2.88,2.88,0,0,1,1.92-.69h.35a2.62,2.62,0,0,1,1.92,1.1,2.77,2.77,0,0,1,.58,2s0,.06-.05.06,0,.3-.06.67-.13,1.07-.26,2.12-.33,2.52-.59,4.42-.57,4.45-1,7.63q-1,7.8-1.57,12.42c-.39,3.09-.66,5.15-.81,6.2a2.44,2.44,0,0,1,0,.44,1.22,1.22,0,0,0,0,.26,6.49,6.49,0,0,1-.82,2.27,4.67,4.67,0,0,1-1.45,1.74,6.54,6.54,0,0,1-8.38,0,6.78,6.78,0,0,1-2.27-3.9l-1.45-7.85c0-.35-.2-.53-.59-.53s-.5.18-.58.53l-1.45,7.85a6.83,6.83,0,0,1-2.27,3.9,6.34,6.34,0,0,1-4.19,1.52,6.13,6.13,0,0,1-3.26-.88,5.82,5.82,0,0,1-2.39-2.38A6.27,6.27,0,0,1,96,61.52a1.22,1.22,0,0,0,0-.26,2.44,2.44,0,0,1,0-.44l-.18-1.28c-.07-.54-.16-1.16-.26-1.86s-.18-1.46-.26-2.27c-.23-1.63-.48-3.46-.73-5.47S94,45.86,93.73,43.77Z"/><path class="cls-2" d="M141,30.38a1.06,1.06,0,0,0-.29.76V41.79a1,1,0,0,0,.29.73,1.13,1.13,0,0,0,.76.26h7.62a2.74,2.74,0,0,1,2,.84,2.83,2.83,0,0,1,.84,2.07,2.87,2.87,0,0,1-2.85,2.85h-7.62a1,1,0,0,0-1.05,1.05V60.24a1,1,0,0,0,.29.7,1.06,1.06,0,0,0,.76.29h10.53a2.87,2.87,0,0,1,2.85,2.85,2.81,2.81,0,0,1-.84,2.06,2.71,2.71,0,0,1-2,.85H137.84a2.71,2.71,0,0,1-2-.85,2.81,2.81,0,0,1-.84-2.06V27.24a2.87,2.87,0,0,1,2.85-2.85h14.43a2.85,2.85,0,0,1,0,5.7H141.74A1.06,1.06,0,0,0,141,30.38Z"/><path class="cls-2" d="M181,43.24a6.45,6.45,0,0,1-.67.91q-.37.43-.78.84a1,1,0,0,0-.29.73,1,1,0,0,0,.29.73,11.61,11.61,0,0,1,2.56,3.78,12,12,0,0,1,.93,4.71,11.77,11.77,0,0,1-2,6.75,12.4,12.4,0,0,1-10,5.36H163a2.53,2.53,0,0,1-2-.88,2.79,2.79,0,0,1-.87-2V27.3A2.87,2.87,0,0,1,163,24.45H171a12,12,0,0,1,6.75,2,12.58,12.58,0,0,1,4.37,5.3,12,12,0,0,1,.93,4.71A11.77,11.77,0,0,1,181,43.24ZM176.77,39a6.32,6.32,0,0,0,.53-2.51,6.57,6.57,0,0,0-1.11-3.55A6.5,6.5,0,0,0,171,30.15h-4a1,1,0,0,0-.76.29,1.06,1.06,0,0,0-.29.76V41.85a.92.92,0,0,0,.29.72,1.07,1.07,0,0,0,.76.27h4a6.61,6.61,0,0,0,3.55-1.05A6.31,6.31,0,0,0,176.77,39Zm0,18.44a6.24,6.24,0,0,0,.53-2.5,6.37,6.37,0,0,0-1.11-3.55,6,6,0,0,0-2.79-2.27A5.89,5.89,0,0,0,171,48.6h-4a1,1,0,0,0-1.05,1V60.3a.94.94,0,0,0,.29.69,1,1,0,0,0,.76.3h4a6.61,6.61,0,0,0,3.55-1A6.28,6.28,0,0,0,176.77,57.44Z"/><path class="cls-3" d="M188.64,43.77c-.42-3.45-.77-6.23-1-8.32s-.49-3.73-.64-4.89-.26-2-.29-2.39-.06-.7-.06-.81l-.06-.06a3,3,0,0,1,.64-2,2.7,2.7,0,0,1,1.86-1.1h.41a2.79,2.79,0,0,1,1.86.69,2.64,2.64,0,0,1,.93,1.75v.06a.79.79,0,0,1,.06.35,5.9,5.9,0,0,0,.12.87l.4,3.26c.2,1.4.4,3,.62,4.74s.45,3.64.72,5.62q1,7.62,1.57,12.34t.76,6.22l.09.44a1.35,1.35,0,0,1,0,.2c0,.28.11.43.35.47a.76.76,0,0,0,.93-.06.93.93,0,0,0,.29-.46l4.89-26.48a2.62,2.62,0,0,1,1-1.69,2.94,2.94,0,0,1,3.66,0,2.88,2.88,0,0,1,1,1.69l4.83,26.42a1.48,1.48,0,0,0,.29.52.85.85,0,0,0,.53.18.53.53,0,0,0,.4-.12,1.39,1.39,0,0,0,.3-.18,1,1,0,0,0,.11-.34v-.41l.58-4.37c.2-1.35.39-2.86.59-4.51s.4-3.38.64-5.21.46-3.58.69-5.41.46-3.55.67-5.18.4-3.09.56-4.39.29-2.34.4-3.12l.18-1.39a2.65,2.65,0,0,1,.93-1.81,2.87,2.87,0,0,1,1.92-.69h.35a2.62,2.62,0,0,1,1.92,1.1,2.77,2.77,0,0,1,.58,2,.05.05,0,0,1-.06.06c0,.07,0,.3,0,.67s-.13,1.07-.27,2.12-.33,2.52-.58,4.42-.57,4.45-1,7.63q-1,7.8-1.57,12.42c-.39,3.09-.66,5.15-.82,6.2,0,.19,0,.34,0,.44a1.22,1.22,0,0,0,0,.26,6.49,6.49,0,0,1-.82,2.27,4.67,4.67,0,0,1-1.45,1.74,6.54,6.54,0,0,1-8.38,0,6.73,6.73,0,0,1-2.27-3.9l-1.46-7.85c0-.35-.19-.53-.58-.53s-.5.18-.58.53l-1.46,7.85a6.73,6.73,0,0,1-2.27,3.9,6.32,6.32,0,0,1-4.19,1.52,6.15,6.15,0,0,1-3.26-.88,5.86,5.86,0,0,1-2.38-2.38,6.49,6.49,0,0,1-.82-2.27,1.22,1.22,0,0,0,0-.26,2.63,2.63,0,0,1,0-.44l-.18-1.28c-.08-.54-.17-1.16-.26-1.86s-.19-1.46-.26-2.27c-.24-1.63-.48-3.46-.73-5.47S188.92,45.86,188.64,43.77Z"/><path class="cls-3" d="M234.76,66.2a2.79,2.79,0,0,1-4,0,2.81,2.81,0,0,1-.84-2.06V27.3a2.84,2.84,0,0,1,4.85-2,2.71,2.71,0,0,1,.85,2V64.14A2.78,2.78,0,0,1,234.76,66.2Z"/><path class="cls-3" d="M262,31.2a11.18,11.18,0,0,1,.93,4.36V64.2a2.89,2.89,0,0,1-2.85,2.85,2.81,2.81,0,0,1-2-.85,2.69,2.69,0,0,1-.87-2V35.56a5,5,0,0,0-.93-3,5.17,5.17,0,0,0-2.39-2,5.5,5.5,0,0,0-2.15-.47,5.84,5.84,0,0,0-3.09.93,5.15,5.15,0,0,0-2,2.45,3.12,3.12,0,0,0-.32,1,6.62,6.62,0,0,0-.09,1.07V64.2a2.74,2.74,0,0,1-.84,2,2.81,2.81,0,0,1-2.07.85,2.89,2.89,0,0,1-2.85-2.85V35.56a11.11,11.11,0,0,1,.49-3.29,10.63,10.63,0,0,1,1.43-2.93,10.34,10.34,0,0,1,4.94-4.08,11.32,11.32,0,0,1,4.37-.87A10.87,10.87,0,0,1,258,26.31,10.45,10.45,0,0,1,262,31.2Z"/><path class="cls-3" d="M274.77,33.47a5.1,5.1,0,0,0-.46,2.09v20.2a5.84,5.84,0,0,0,.93,3.08,5.93,5.93,0,0,0,2.44,2,5.09,5.09,0,0,0,2.15.41,5.17,5.17,0,0,0,3-.93,5.28,5.28,0,0,0,2-2.39,5.57,5.57,0,0,0,.47-2.15V52.32a1,1,0,0,0-.3-.7,1,1,0,0,0-.75-.29h-2.5a2.74,2.74,0,0,1-2-.84,2.82,2.82,0,0,1-.85-2.07,2.75,2.75,0,0,1,.85-2,2.71,2.71,0,0,1,2-.85h6.4A2.9,2.9,0,0,1,291,48.42v7.34A10.84,10.84,0,0,1,289.09,62,11,11,0,0,1,279.83,67a11.18,11.18,0,0,1-6.28-1.92,12.37,12.37,0,0,1-2.39-2.18,11.17,11.17,0,0,1-2.56-7.13V35.56a11.79,11.79,0,0,1,.47-3.29,9.23,9.23,0,0,1,1.45-2.93,10.37,10.37,0,0,1,5-4.08,10.57,10.57,0,0,1,4.31-.87h.05a10.75,10.75,0,0,1,6.23,1.92,12.89,12.89,0,0,1,2.39,2.15,10.54,10.54,0,0,1,1.69,2.74,11.24,11.24,0,0,1,.87,4.36,2.84,2.84,0,0,1-.84,2,2.73,2.73,0,0,1-2,.87,2.7,2.7,0,0,1-2-.87,2.84,2.84,0,0,1-.84-2,5.65,5.65,0,0,0-.94-3,5.87,5.87,0,0,0-2.44-2,5.16,5.16,0,0,0-2.1-.47,5.61,5.61,0,0,0-1.62.23,5.76,5.76,0,0,0-1.46.7A5.23,5.23,0,0,0,274.77,33.47Z"/><path class="cls-3" d="M303.87,31a4.55,4.55,0,0,0-1.57,5.64,8.14,8.14,0,0,0,1.22,2.15,16.58,16.58,0,0,0,1.86,2.13c.78.75,1.75,1.64,2.91,2.65.51.42,1.06.9,1.66,1.42s1.19,1.1,1.78,1.72a22.06,22.06,0,0,1,1.6,1.77c.44.57.86,1.12,1.25,1.66a11.63,11.63,0,0,1,1.34,2.62,11.29,11.29,0,0,1,.81,4.07,9.89,9.89,0,0,1-1.8,5.71,10.8,10.8,0,0,1-4.48,3.72,10.22,10.22,0,0,1-4,.82,9.86,9.86,0,0,1-5.76-1.81A10.26,10.26,0,0,1,297,60.76a10.49,10.49,0,0,1-.75-4,2.81,2.81,0,0,1,.84-2.06,2.75,2.75,0,0,1,2-.85A2.89,2.89,0,0,1,302,56.8a4.68,4.68,0,0,0,.76,2.51,5,5,0,0,0,2,1.63,4.94,4.94,0,0,0,1.81.35,4.36,4.36,0,0,0,2.5-.76,4.92,4.92,0,0,0,1.63-2,4.85,4.85,0,0,0,.35-1.8,4.5,4.5,0,0,0-.41-1.92,8.25,8.25,0,0,0-1.16-2.1,25.3,25.3,0,0,0-1.89-2.15c-.76-.78-1.74-1.67-2.94-2.68l-2.24-2a21.92,21.92,0,0,1-2.13-2.18,16.09,16.09,0,0,1-3.26-5,11.21,11.21,0,0,1-.81-4.07,9.6,9.6,0,0,1,.47-3,11.35,11.35,0,0,1,1.28-2.73,10.53,10.53,0,0,1,4.54-3.67,9.53,9.53,0,0,1,3.95-.81,10,10,0,0,1,5.76,1.74,10.9,10.9,0,0,1,3.73,4.48,10.69,10.69,0,0,1,.76,4,2.84,2.84,0,0,1-4.86,2,2.71,2.71,0,0,1-.85-2,4.81,4.81,0,0,0-.75-2.56,5,5,0,0,0-2-1.63,4.48,4.48,0,0,0-1.75-.35A4.25,4.25,0,0,0,303.87,31Z"/><path class="cls-3" d="M322.63,21a1.94,1.94,0,0,0-.46-.36,1.29,1.29,0,0,0,.85-.4,1.13,1.13,0,0,0,.28-.8,1.24,1.24,0,0,0-.18-.67,1.06,1.06,0,0,0-.5-.42,3.47,3.47,0,0,0-1-.11h-1.83v4.3h.87V20.74h.18a1.63,1.63,0,0,1,.44,0,1,1,0,0,1,.26.18,6.46,6.46,0,0,1,.45.64l.63.93h1l-.52-.84A5.28,5.28,0,0,0,322.63,21Zm-1.34-.94h-.64V19H322a.5.5,0,0,1,.33.17.5.5,0,0,1,.12.35.53.53,0,0,1-.09.32.5.5,0,0,1-.24.19A3.87,3.87,0,0,1,321.29,20.05Z"/><path class="cls-3" d="M321.47,16a4.43,4.43,0,1,0,4.43,4.43A4.44,4.44,0,0,0,321.47,16Zm0,8.23a3.8,3.8,0,1,1,3.8-3.8A3.8,3.8,0,0,1,321.47,24.2Z"/></g></g></svg>